{"title":"Avatar [2009] DVDScr-Divx=(EST) - (subs)","uid":5352513,"size":2238482103,"categoryP":"video","categoryS":"movies","magnet":"?xt=urn:btih:e986df58645d42dcc8063e9ec43cdcb9111a1c58&amp;dn=Avatar+%5B2009%5D+DVDScr-Divx%3D%28EST%29+-+%28subs%29&amp;tr=udp%3A%2F%2Ftracker.openbittorrent.com%3A80&amp;tr=udp%3A%2F%2Fopen.demonii.com%3A1337&amp;tr=udp%3A%2F%2Ftracker.coppersurfer.tk%3A6969&amp;tr=udp%3A%2F%2Fexodus.desync.com%3A6969","seeders":0,"leechers":0,"uploader":"JarHead12","files":-1,"time":1265828279,"description":"Avatar (2009) DVDSCR XviD-(est)-(subs)\n\nFormat                           : AVI\nFormat/Info                      : Audio Video Interleave\nFile size                        : 2.08 GiB\nDuration                         : 2h 36mn\nOverall bit rate                 : 1 257 Kbps\nWriting application              : VirtualDubMod 1.5.10.2 (build 2542/release)\nWriting library                  : VirtualDubMod build 2542/release\nOriginal source form             : MAX TORRENTZ\nCopyright                        : SIGISMUNT\n\nVideo\nID                               : 0\nFormat                           : MPEG-4 Visual\nFormat profile                   : AdvancedSimple@L5\nFormat settings, BVOP            : Yes\nFormat settings, QPel            : No\nFormat settings, GMC             : No warppoints\nFormat settings, Matrix          : Default (H.263)\nMuxing mode                      : Packed bitstream\nCodec ID                         : XVID\nCodec ID/Hint                    : XviD\nDuration                         : 2h 36mn\nBit rate                         : 1 135 Kbps\nWidth                            : 704 pixels\nHeight                           : 384 pixels\nDisplay aspect ratio             : 16:9\nFrame rate                       : 23.976 fps\nResolution                       : 24 bits\nColorimetry                      : 4:2:0\nScan type                        : Progressive\nBits/(Pixel*Frame)               : 0.173\nStream size                      : 1.23 GiB (90%)\nWriting library                  : XviD 1.3.0.dev55\n\nAudio\nID                               : 1\nFormat                           : MPEG Audio\nFormat version                   : Version 1\nFormat profile                   : Layer 3\nCodec ID                         : 55\nCodec ID/Hint                    : MP3\nDuration                         : 2h 36mn\nBit rate mode                    : Constant\nBit rate                         : 128 Kbps\nChannel(s)                       : 2 channels\nSampling rate                    : 44.1 KHz\nResolution                       : 16 bits\nStream size                      : 126 MiB (9%)\nAlignment                        : Aligned on interleaves\nInterleave, duration             : 26 ms (0.63 video frame)\nInterleave, preload duration     : 517 ms\nWriting library                  : LAME3.98.2  &lt;a href=&quot;\nhttp://www.imdb.com/title/tt0499549/&quot; rel=&quot;nofollow&quot; target=&quot;_NEW&quot;&gt;\nhttp://www.imdb.com/title/tt0499549/&lt;/a&gt; \n","torrent":{"xt":"urn:btih:e986df58645d42dcc8063e9ec43cdcb9111a1c58","amp;dn":"Avatar+%5B2009%5D+DVDScr-Divx%3D%28EST%29+-+%28subs%29","amp;tr":["udp%3A%2F%2Ftracker.openbittorrent.com%3A80","udp%3A%2F%2Fopen.demonii.com%3A1337","udp%3A%2F%2Ftracker.coppersurfer.tk%3A6969","udp%3A%2F%2Fexodus.desync.com%3A6969"],"infoHash":"e986df58645d42dcc8063e9ec43cdcb9111a1c58","infoHashBuffer":{"type":"Buffer","data":[233,134,223,88,100,93,66,220,200,6,62,158,196,60,220,185,17,26,28,88]},"announce":[],"urlList":[]}}